<?xml version="1.0" encoding="UTF-8"?>
<!--Generator: Apple Native CoreSVG 232.5-->
<!DOCTYPE svg
PUBLIC "-//W3C//DTD SVG 1.1//EN"
       "http://www.w3.org/Graphics/SVG/1.1/DTD/svg11.dtd">
<svg version="1.1" xmlns="http://www.w3.org/2000/svg" xmlns:xlink="http://www.w3.org/1999/xlink" width="36.4709" height="36.5353">
 <g>
  <rect height="36.5353" opacity="0" width="36.4709" x="0" y="0"/>
  <path d="M1.29731 11.7883C2.14086 11.7883 2.59466 11.3104 2.59466 10.4669L2.59466 5.82471C2.59466 3.73317 3.70827 2.6512 5.75235 2.6512L10.4736 2.6512C11.3172 2.6512 11.7868 2.18159 11.7868 1.35388C11.7868 0.510358 11.3172 0.0407122 10.4736 0.0407122L5.7041 0.0407122C1.92626 0.0407122 0 1.95114 0 5.69732L0 10.4669C0 11.3104 0.469654 11.7883 1.29731 11.7883ZM35.1731 11.7883C36.025 11.7883 36.4705 11.3104 36.4705 10.4669L36.4705 5.69732C36.4705 1.96773 34.5683 0.0407122 30.7664 0.0407122L26.0052 0.0407122C25.1533 0.0407122 24.6837 0.510358 24.6837 1.35388C24.6837 2.18159 25.1533 2.6512 26.0052 2.6512L30.7181 2.6512C32.729 2.6512 33.8841 3.73317 33.8841 5.82471L33.8841 10.4669C33.8841 11.3104 34.3454 11.7883 35.1731 11.7883ZM5.7041 36.5353L10.4736 36.5353C11.3172 36.5353 11.7868 36.0657 11.7868 35.238C11.7868 34.3945 11.3172 33.9248 10.4736 33.9248L5.75235 33.9248C3.70827 33.9248 2.59466 32.8429 2.59466 30.7513L2.59466 26.125C2.59466 25.2657 2.12502 24.7877 1.29731 24.7877C0.453806 24.7877 0 25.2657 0 26.125L0 30.8787C0 34.6249 1.92626 36.5353 5.7041 36.5353ZM26.0052 36.5353L30.7664 36.5353C34.5683 36.5353 36.4705 34.6083 36.4705 30.8787L36.4705 26.125C36.4705 25.2657 36.0091 24.7877 35.1731 24.7877C34.3296 24.7877 33.8841 25.2657 33.8841 26.125L33.8841 30.7513C33.8841 32.8429 32.729 33.9248 30.7181 33.9248L26.0052 33.9248C25.1533 33.9248 24.6837 34.3945 24.6837 35.238C24.6837 36.0657 25.1533 36.5353 26.0052 36.5353Z" fill="#000000"/>
  <path d="M18.2714 24.5366C21.6732 24.5366 24.4959 21.7139 24.4959 18.2639C24.4959 14.8621 21.6732 12.0394 18.2714 12.0394C14.8214 12.0394 11.9987 14.8621 11.9987 18.2639C11.9987 21.7139 14.8214 24.5366 18.2714 24.5366Z" fill="#000000"/>
 </g>
</svg>
