<?xml version="1.0" encoding="UTF-8"?>
<!--Generator: Apple Native CoreSVG 232.5-->
<!DOCTYPE svg
PUBLIC "-//W3C//DTD SVG 1.1//EN"
       "http://www.w3.org/Graphics/SVG/1.1/DTD/svg11.dtd">
<svg version="1.1" xmlns="http://www.w3.org/2000/svg" xmlns:xlink="http://www.w3.org/1999/xlink" width="37.1364" height="37.4269">
 <g>
  <rect height="37.4269" opacity="0" width="37.1364" x="0" y="0"/>
  <path d="M2.03363 27.6527L9.49698 35.0919C12.1461 37.7252 15.2191 37.8209 17.7333 35.3067L35.9492 17.0667C37.5436 15.4963 37.5361 13.2203 35.9017 11.6025L25.523 1.23965C23.9052-0.386474 21.6533-0.418157 20.0588 1.17635L1.83463 19.408C-0.679601 21.9223-0.583859 24.9952 2.03363 27.6527ZM3.86391 25.8058C2.40805 24.3341 2.34398 22.5759 3.75234 21.1516L21.8024 3.10161C22.3619 2.54213 23.1649 2.54213 23.7086 3.08576L34.0556 13.4327C34.5992 13.9847 34.5834 14.7636 34.0397 15.3314L15.958 33.3732C14.5655 34.7974 12.8073 34.7333 11.3355 33.2616ZM4.71532 18.3464L18.804 32.4351L20.4127 30.794L6.37977 16.7611Z" fill="#000000"/>
 </g>
</svg>
