<?xml version="1.0" encoding="UTF-8"?>
<!--Generator: Apple Native CoreSVG 232.5-->
<!DOCTYPE svg
PUBLIC "-//W3C//DTD SVG 1.1//EN"
       "http://www.w3.org/Graphics/SVG/1.1/DTD/svg11.dtd">
<svg version="1.1" xmlns="http://www.w3.org/2000/svg" xmlns:xlink="http://www.w3.org/1999/xlink" width="45.6854" height="19.8823">
 <g>
  <rect height="19.8823" opacity="0" width="45.6854" x="0" y="0"/>
  <path d="M45.685 4.94417C45.685 1.71894 43.9495 0.00751394 40.701 0.00751394L4.95249 0.00751394C1.70387 0.00751394 0 1.71894 0 4.94417L0 14.9456C0 18.1709 1.71972 19.8823 4.96831 19.8823L40.7168 19.8823C43.9654 19.8823 45.685 18.1709 45.685 14.9456ZM43.0746 5.37986L43.0746 14.51C43.0746 16.318 42.0808 17.2959 40.3203 17.2959L5.33313 17.2959C3.58843 17.2959 2.59466 16.318 2.59466 14.51L2.59466 5.37986C2.59466 3.57181 3.58843 2.59389 5.34896 2.59389L40.3361 2.59389C42.0808 2.59389 43.0746 3.57181 43.0746 5.37986ZM6.83637 1.66893L5.43642 1.66893L5.43642 11.47C5.43642 11.8786 5.73192 12.1665 6.13223 12.1665C6.54837 12.1665 6.83637 11.8627 6.83637 11.4541ZM10.1824 1.66893L8.78241 1.66893L8.78241 8.16545C8.78241 8.57408 9.0862 8.86206 9.47822 8.86206C9.89436 8.86206 10.1824 8.55823 10.1824 8.14963ZM13.5125 1.66893L12.1125 1.66893L12.1125 8.16545C12.1125 8.57408 12.4163 8.86206 12.8084 8.86206C13.2403 8.86206 13.5125 8.55823 13.5125 8.14963ZM16.8426 1.66893L15.4427 1.66893L15.4427 8.16545C15.4427 8.57408 15.7623 8.86206 16.1385 8.86206C16.5705 8.86206 16.8426 8.55823 16.8426 8.14963ZM20.2045 1.66893L18.7886 1.66893L18.7886 8.16545C18.7886 8.57408 19.1083 8.86206 19.4928 8.86206C19.9165 8.86206 20.2045 8.55823 20.2045 8.14963ZM23.5587 1.66893L22.1429 1.66893L22.1429 11.47C22.1429 11.8786 22.4626 12.1665 22.8471 12.1665C23.2707 12.1665 23.5587 11.8627 23.5587 11.4541ZM26.8889 1.66893L25.4731 1.66893L25.4731 8.16545C25.4731 8.57408 25.7927 8.86206 26.1931 8.86206C26.6009 8.86206 26.8889 8.55823 26.8889 8.14963ZM30.2349 1.66893L28.8349 1.66893L28.8349 8.16545C28.8349 8.57408 29.1387 8.86206 29.539 8.86206C29.9552 8.86206 30.2349 8.55823 30.2349 8.14963ZM33.565 1.66893L32.165 1.66893L32.165 8.16545C32.165 8.57408 32.4689 8.86206 32.8692 8.86206C33.2853 8.86206 33.565 8.55823 33.565 8.14963ZM36.911 1.66893L35.511 1.66893L35.511 8.16545C35.511 8.57408 35.8148 8.86206 36.2152 8.86206C36.6471 8.86206 36.911 8.55823 36.911 8.14963ZM40.2569 1.66893L38.8487 1.66893L38.8487 11.47C38.8487 11.8786 39.1525 12.1665 39.5528 12.1665C39.9848 12.1665 40.2569 11.8627 40.2569 11.4541Z" fill="#000000" fill-opacity="0.85"/>
 </g>
</svg>
