<?xml version="1.0" encoding="UTF-8"?>
<!--Generator: Apple Native CoreSVG 232.5-->
<!DOCTYPE svg
PUBLIC "-//W3C//DTD SVG 1.1//EN"
       "http://www.w3.org/Graphics/SVG/1.1/DTD/svg11.dtd">
<svg version="1.1" xmlns="http://www.w3.org/2000/svg" xmlns:xlink="http://www.w3.org/1999/xlink" width="33.1175" height="45.372">
 <g>
  <rect height="45.372" opacity="0" width="33.1175" x="0" y="0"/>
  <path d="M0.00185694 23.9986C0.00185694 33.2267 7.36321 40.5964 16.5514 40.5964C25.7562 40.5964 33.1175 33.2267 33.1175 23.9986C33.1175 14.8029 25.7562 7.48223 16.5514 7.48223C15.1617 7.48223 13.8134 7.64588 12.7375 7.88944L18.3714 2.26071C18.6029 1.99762 18.7303 1.67121 18.7303 1.31239C18.7303 0.588708 18.1898 0 17.4646 0C17.05 0 16.7402 0.143206 16.517 0.389707L8.56963 8.49169C8.26429 8.79703 8.10447 9.15585 8.10447 9.51468C8.10447 9.88857 8.24016 10.2075 8.56963 10.5452L16.5253 18.5839C16.7485 18.8229 17.0666 18.9503 17.4563 18.9503C18.1815 18.9503 18.7303 18.3849 18.7303 17.6612C18.7303 17.3182 18.6029 17.0001 18.3556 16.737L12.1457 10.5323C13.3747 10.2239 14.9318 10.0686 16.5514 10.0686C24.3314 10.0686 30.5229 16.2434 30.5229 23.9986C30.5229 31.7944 24.3314 37.9859 16.5514 37.9859C8.79549 37.9859 2.59652 31.7944 2.59652 23.9986C2.59652 23.2184 2.10275 22.6696 1.34666 22.6696C0.550632 22.6696 0.00185694 23.2184 0.00185694 23.9986Z" fill="#000000" fill-opacity="0.85"/>
 </g>
</svg>
