<?xml version="1.0" encoding="UTF-8"?>
<!--Generator: Apple Native CoreSVG 232.5-->
<!DOCTYPE svg
PUBLIC "-//W3C//DTD SVG 1.1//EN"
       "http://www.w3.org/Graphics/SVG/1.1/DTD/svg11.dtd">
<svg version="1.1" xmlns="http://www.w3.org/2000/svg" xmlns:xlink="http://www.w3.org/1999/xlink" width="36.612" height="36.9652">
 <g>
  <rect height="36.9652" opacity="0" width="36.612" x="0" y="0"/>
  <path d="M1.77636e-15 14.8214C1.77636e-15 22.9992 6.65189 29.6353 14.8297 29.6353C18.1282 29.6353 21.153 28.5556 23.6131 26.719L33.26 36.39C33.6422 36.7647 34.145 36.9569 34.672 36.9569C35.8224 36.9569 36.6116 36.0862 36.6116 34.9773C36.6116 34.4511 36.4043 33.9724 36.0689 33.597L26.4536 23.9659C28.4508 21.45 29.6353 18.2805 29.6353 14.8214C29.6353 6.65187 22.9992 0 14.8297 0C6.65189 0 1.77636e-15 6.65187 1.77636e-15 14.8214ZM2.74465 14.8214C2.74465 8.15576 8.15575 2.74464 14.8297 2.74464C21.4795 2.74464 26.9065 8.15576 26.9065 14.8214C26.9065 21.4795 21.4795 26.9064 14.8297 26.9064C8.15575 26.9064 2.74465 21.4795 2.74465 14.8214Z" fill="#000000"/>
  <path d="M8.70183 14.8214C8.70183 15.4825 9.23553 16.0079 9.9042 16.0079L13.6273 16.0079L13.6273 19.7228C13.6273 20.3997 14.1528 20.9335 14.8297 20.9251C15.4825 20.9335 16.0162 20.3914 16.0162 19.7228L16.0162 16.0079L19.7228 16.0079C20.3915 16.0079 20.9252 15.4825 20.9252 14.8214C20.9252 14.1528 20.3915 13.6273 19.7228 13.6273L16.0162 13.6273L16.0162 9.90418C16.0162 9.23551 15.4825 8.70181 14.8297 8.70181C14.1528 8.70181 13.6273 9.23551 13.6273 9.90418L13.6273 13.6273L9.9042 13.6273C9.23553 13.6273 8.70183 14.1528 8.70183 14.8214Z" fill="#000000"/>
 </g>
</svg>
