<?xml version="1.0" encoding="UTF-8"?>
<!--Generator: Apple Native CoreSVG 232.5-->
<!DOCTYPE svg
PUBLIC "-//W3C//DTD SVG 1.1//EN"
       "http://www.w3.org/Graphics/SVG/1.1/DTD/svg11.dtd">
<svg version="1.1" xmlns="http://www.w3.org/2000/svg" xmlns:xlink="http://www.w3.org/1999/xlink" width="34.4309" height="34.4697">
 <g>
  <rect height="34.4697" opacity="0" width="34.4309" x="0" y="0"/>
  <path d="M13.2128 33.1015L13.2128 1.40891L10.6024 1.40891L10.6024 33.1015ZM23.8298 33.1015L23.8298 1.40891L21.2352 1.40891L21.2352 33.1015ZM1.37771 13.244L33.0545 13.244L33.0545 10.6494L1.37771 10.6494ZM1.37771 23.861L33.0545 23.861L33.0545 21.2664L1.37771 21.2664ZM0.00122969 33.0712C0.00122969 33.8945 0.536472 34.4455 1.35969 34.4455L33.0725 34.4455C33.8957 34.4455 34.4309 33.8945 34.4309 33.0712L34.4309 1.37429C34.4309 0.551087 33.8957-3.55271e-15 33.0725-3.55271e-15L1.35969-3.55271e-15C0.536472-3.55271e-15 0.00122969 0.551087 0.00122969 1.37429ZM2.59589 31.339L2.59589 3.10652C2.59589 2.75523 2.74063 2.61051 3.10777 2.61051L31.3402 2.61051C31.6915 2.61051 31.8363 2.75523 31.8363 3.10652L31.8363 31.339C31.8363 31.6903 31.6915 31.8351 31.3402 31.8351L3.10777 31.8351C2.74063 31.8351 2.59589 31.6903 2.59589 31.339Z" fill="#000000"/>
 </g>
</svg>
