<?xml version="1.0" encoding="UTF-8"?>
<!--Generator: Apple Native CoreSVG 232.5-->
<!DOCTYPE svg
PUBLIC "-//W3C//DTD SVG 1.1//EN"
       "http://www.w3.org/Graphics/SVG/1.1/DTD/svg11.dtd">
<svg version="1.1" xmlns="http://www.w3.org/2000/svg" xmlns:xlink="http://www.w3.org/1999/xlink" width="30.8276" height="30.8674">
 <g>
  <rect height="30.8674" opacity="0" width="30.8276" x="0" y="0"/>
  <path d="M0 15.4216C0 16.2011 0.652065 16.8614 1.43979 16.8614L13.9818 16.8614L13.9818 29.4035C13.9818 30.1754 14.6422 30.8432 15.4216 30.8432C16.2011 30.8432 16.8456 30.1754 16.8456 29.4035L16.8456 16.8614L29.4034 16.8614C30.1753 16.8614 30.8274 16.2011 30.8274 15.4216C30.8274 14.6422 30.1753 13.9818 29.4034 13.9818L16.8456 13.9818L16.8456 1.4398C16.8456 0.667891 16.2011 0 15.4216 0C14.6422 0 13.9818 0.667891 13.9818 1.4398L13.9818 13.9818L1.43979 13.9818C0.652065 13.9818 0 14.6422 0 15.4216Z" fill="#000000"/>
 </g>
</svg>
