<?xml version="1.0" encoding="UTF-8"?>
<!--Generator: Apple Native CoreSVG 232.5-->
<!DOCTYPE svg
PUBLIC "-//W3C//DTD SVG 1.1//EN"
       "http://www.w3.org/Graphics/SVG/1.1/DTD/svg11.dtd">
<svg version="1.1" xmlns="http://www.w3.org/2000/svg" xmlns:xlink="http://www.w3.org/1999/xlink" width="34.4309" height="34.4863">
 <g>
  <rect height="34.4863" opacity="0" width="34.4309" x="0" y="0"/>
  <path d="M5.70533 34.4863L28.7268 34.4863C32.5205 34.4863 34.4309 32.5592 34.4309 28.8296L34.4309 5.69731C34.4309 1.96774 32.5205 0.0407208 28.7268 0.0407208L5.70533 0.0407208C1.92749 0.0407208 0.00122969 1.95115 0.00122969 5.69731L0.00122969 28.8296C0.00122969 32.5758 1.92749 34.4863 5.70533 34.4863ZM5.75358 31.8758C3.7095 31.8758 2.59589 30.8096 2.59589 28.7023L2.59589 5.82472C2.59589 3.73318 3.7095 2.65121 5.75358 2.65121L28.6786 2.65121C30.6895 2.65121 31.8363 3.73318 31.8363 5.82472L31.8363 28.7023C31.8363 30.8096 30.6895 31.8758 28.6786 31.8758Z" fill="#000000" fill-opacity="0.85"/>
  <path d="M19.6245 26.144C20.3889 26.144 20.8351 25.642 20.8351 24.7909L20.8351 22.1496L22.4796 22.1496C23.1249 22.1496 23.5712 21.695 23.5712 21.0739C23.5712 20.4286 23.1249 19.9981 22.4796 19.9981L20.8351 19.9981L20.8351 10.0557C20.8351 9.02748 20.0466 8.31811 18.8669 8.31811C17.7444 8.31811 17.0358 8.72442 16.3656 9.73683C14.4793 12.5693 11.7717 16.5739 10.2283 19.0973C9.89442 19.6144 9.76624 20.0373 9.76624 20.5153C9.76624 21.5043 10.4439 22.1496 11.5054 22.1496L18.4297 22.1496L18.4297 24.7909C18.4297 25.6261 18.8759 26.144 19.6245 26.144ZM18.4297 19.9981L12.2057 19.9981L12.2057 19.8858C13.5853 17.5208 16.4688 13.2326 18.3015 10.505L18.4297 10.505Z" fill="#000000" fill-opacity="0.85"/>
 </g>
</svg>
