<?xml version="1.0" encoding="UTF-8"?>
<!--Generator: Apple Native CoreSVG 232.5-->
<!DOCTYPE svg
PUBLIC "-//W3C//DTD SVG 1.1//EN"
       "http://www.w3.org/Graphics/SVG/1.1/DTD/svg11.dtd">
<svg version="1.1" xmlns="http://www.w3.org/2000/svg" xmlns:xlink="http://www.w3.org/1999/xlink" width="36.612" height="36.9652">
 <g>
  <rect height="36.9652" opacity="0" width="36.612" x="0" y="0"/>
  <path d="M1.77636e-15 14.8214C1.77636e-15 22.9992 6.65189 29.6353 14.8297 29.6353C18.1282 29.6353 21.153 28.5556 23.6131 26.719L33.26 36.39C33.6422 36.7647 34.145 36.9569 34.672 36.9569C35.8224 36.9569 36.6116 36.0862 36.6116 34.9773C36.6116 34.4511 36.4043 33.9724 36.0689 33.597L26.4536 23.9659C28.4508 21.45 29.6353 18.2805 29.6353 14.8214C29.6353 6.65187 22.9992 0 14.8297 0C6.65189 0 1.77636e-15 6.65187 1.77636e-15 14.8214ZM2.74465 14.8214C2.74465 8.15576 8.15575 2.74464 14.8297 2.74464C21.4795 2.74464 26.9065 8.15576 26.9065 14.8214C26.9065 21.4795 21.4795 26.9064 14.8297 26.9064C8.15575 26.9064 2.74465 21.4795 2.74465 14.8214Z" fill="#000000"/>
  <path d="M9.8959 16.0079L19.7311 16.0079C20.3839 16.0079 20.9335 15.4667 20.9335 14.8214C20.9335 14.1686 20.3839 13.6273 19.7311 13.6273L9.8959 13.6273C9.24306 13.6273 8.69353 14.1686 8.69353 14.8214C8.69353 15.4667 9.24306 16.0079 9.8959 16.0079Z" fill="#000000"/>
 </g>
</svg>
