<?xml version="1.0" encoding="UTF-8"?>
<!--Generator: Apple Native CoreSVG 232.5-->
<!DOCTYPE svg
PUBLIC "-//W3C//DTD SVG 1.1//EN"
       "http://www.w3.org/Graphics/SVG/1.1/DTD/svg11.dtd">
<svg version="1.1" xmlns="http://www.w3.org/2000/svg" xmlns:xlink="http://www.w3.org/1999/xlink" width="42.7644" height="43.0003">
 <g>
  <rect height="43.0003" opacity="0" width="42.7644" x="0" y="0"/>
  <path d="M0.603504 22.763L6.65991 28.2492C7.82765 29.343 9.38063 28.5062 9.38063 27.0188L9.38063 22.9196L19.9532 22.9196L19.9532 33.551L15.8381 33.551C14.3424 33.551 13.514 35.1198 14.5995 36.2717L20.094 42.344C20.8471 43.1552 21.9712 43.1152 22.6836 42.3281L28.1623 36.2717C29.2562 35.1198 28.4194 33.551 26.932 33.551L22.8245 33.551L22.8245 22.9196L33.3812 22.9196L33.3812 27.0188C33.3812 28.5062 34.9259 29.343 36.1019 28.2492L42.1425 22.7788C42.9537 22.0415 42.9771 20.9174 42.1583 20.1808L36.1019 14.6947C34.9259 13.6008 33.3812 14.4376 33.3812 15.9249L33.3812 20.04L22.8245 20.04L22.8245 9.38452L26.932 9.38452C28.4194 9.38452 29.2562 7.8157 28.1623 6.66375L22.6761 0.591551C21.9396-0.211372 20.8155-0.188033 20.0782 0.607386L14.5995 6.66375C13.514 7.8157 14.3424 9.38452 15.8381 9.38452L19.9532 9.38452L19.9532 20.04L9.38063 20.04L9.38063 15.9249C9.38063 14.4376 7.82765 13.6008 6.65991 14.6947L0.619334 20.165C-0.18359 20.8857-0.223545 22.0098 0.603504 22.763Z" fill="#000000"/>
 </g>
</svg>
