<?xml version="1.0" encoding="UTF-8"?>
<!--Generator: Apple Native CoreSVG 232.5-->
<!DOCTYPE svg
PUBLIC "-//W3C//DTD SVG 1.1//EN"
       "http://www.w3.org/Graphics/SVG/1.1/DTD/svg11.dtd">
<svg version="1.1" xmlns="http://www.w3.org/2000/svg" xmlns:xlink="http://www.w3.org/1999/xlink" width="27.969" height="43.0269">
 <g>
  <rect height="43.0269" opacity="0" width="27.969" x="0" y="0"/>
  <path d="M13.0498 5.67843L14.9089 5.67843L14.9089 0.917456C14.9089 0.407089 14.5018 0 13.9831 0C13.4728 0 13.0498 0.422906 13.0498 0.933273ZM13.9831 15.1764C17.1051 15.1764 19.5681 12.7051 19.5681 9.59144C19.5681 6.47777 17.1051 4.00644 13.9831 4.00644C10.8695 4.00644 8.39813 6.47777 8.39813 9.59144C8.39813 12.7051 10.8695 15.1764 13.9831 15.1764ZM13.9831 12.7401C12.1917 12.7401 10.8345 11.3912 10.8345 9.59144C10.8345 7.79168 12.1917 6.44282 13.9831 6.44282C15.7829 6.44282 17.1317 7.79168 17.1317 9.59144C17.1317 11.3912 15.7829 12.7401 13.9831 12.7401ZM13.0323 13.8097L10.5017 13.1802L3.02699 38.188C2.81215 38.8566 3.23354 39.5886 3.94213 39.7559C4.61829 39.9632 5.32688 39.5569 5.51759 38.8491ZM3.73635 37.2894L2.49927 41.866C2.37188 42.3115 2.61009 42.7562 3.06311 42.8836C3.52446 43.011 3.96919 42.7487 4.0966 42.2957L5.34948 37.7349ZM14.934 13.8097L22.4328 38.8491C22.6476 39.5569 23.3321 39.9632 24.0324 39.7559C24.7169 39.5886 25.1466 38.8566 24.9476 38.188L17.457 13.1802ZM24.2299 37.2894L22.6168 37.7349L23.8697 42.2957C23.997 42.7487 24.4501 43.011 24.9031 42.8836C25.3645 42.7562 25.5861 42.3115 25.467 41.866ZM1.07574 24.3218C0.486244 24.3218 0 24.7997 0 25.3817C0 25.9795 0.486244 26.4574 1.07574 26.4574L26.8905 26.4574C27.4883 26.4574 27.9662 25.9795 27.9662 25.3817C27.9662 24.7997 27.4883 24.3218 26.8905 24.3218ZM15.0588 22.1247C15.0588 21.5427 14.5809 21.0648 13.9831 21.0648C13.3936 21.0648 12.9074 21.5427 12.9074 22.1247L12.9074 28.6387C12.9074 29.2365 13.3936 29.7145 13.9831 29.7145C14.5809 29.7145 15.0588 29.2365 15.0588 28.6387Z" fill="#000000" fill-opacity="0.85"/>
 </g>
</svg>
