<?xml version="1.0" encoding="UTF-8"?>
<!--Generator: Apple Native CoreSVG 326-->
<!DOCTYPE svg
PUBLIC "-//W3C//DTD SVG 1.1//EN"
       "http://www.w3.org/Graphics/SVG/1.1/DTD/svg11.dtd">
<svg version="1.1" xmlns="http://www.w3.org/2000/svg" xmlns:xlink="http://www.w3.org/1999/xlink" viewBox="0 0 33.501 49.8779">
 <g>
  <rect height="49.8779" opacity="0" width="33.501" x="0" y="0"/>
  <path d="M33.1348 20.4932L33.1348 39.2725C33.1348 42.9932 31.2305 44.9121 27.4365 44.9121L5.69824 44.9121C1.91895 44.9121 0 43.0225 0 39.2725L0 20.4932C0 16.7432 1.91895 14.8389 5.69824 14.8389L11.9824 14.8389L11.9824 17.4463L5.75684 17.4463C3.70605 17.4463 2.59277 18.5303 2.59277 20.625L2.59277 39.126C2.59277 41.2354 3.70605 42.3193 5.75684 42.3193L27.3779 42.3193C29.3848 42.3193 30.542 41.2354 30.542 39.126L30.542 20.625C30.542 18.5303 29.3848 17.4463 27.3779 17.4463L21.1523 17.4463L21.1523 14.8389L27.4365 14.8389C31.2305 14.8389 33.1348 16.7578 33.1348 20.4932Z" fill="black"/>
  <path d="M16.5674 30.2783C17.2559 30.2783 17.8564 29.707 17.8564 29.0186L17.8564 9.375L17.7539 6.60645L18.9111 7.80762L22.0898 11.1475C22.3242 11.4111 22.6611 11.543 22.9688 11.543C23.6426 11.543 24.1553 11.0596 24.1553 10.4004C24.1553 10.0635 24.0088 9.7998 23.7744 9.55078L17.5049 3.45703C17.1826 3.13477 16.8896 3.03223 16.5674 3.03223C16.2451 3.03223 15.9521 3.13477 15.6299 3.45703L9.36035 9.55078C9.11133 9.7998 8.97949 10.0635 8.97949 10.4004C8.97949 11.0596 9.46289 11.543 10.1367 11.543C10.4443 11.543 10.7959 11.4111 11.0303 11.1475L14.2236 7.80762L15.3809 6.5918L15.2783 9.375L15.2783 29.0186C15.2783 29.707 15.8789 30.2783 16.5674 30.2783Z" fill="black"/>
 </g>
</svg>
