<?xml version="1.0" encoding="UTF-8"?>
<!--Generator: Apple Native CoreSVG 232.5-->
<!DOCTYPE svg
PUBLIC "-//W3C//DTD SVG 1.1//EN"
       "http://www.w3.org/Graphics/SVG/1.1/DTD/svg11.dtd">
<svg version="1.1" xmlns="http://www.w3.org/2000/svg" xmlns:xlink="http://www.w3.org/1999/xlink" width="38.1588" height="38.1669">
 <g>
  <rect height="38.1669" opacity="0" width="38.1588" x="0" y="0"/>
  <path d="M19.0714 38.1428C29.5118 38.1428 38.1587 29.5118 38.1587 19.0714C38.1587 8.63097 29.496 0 19.0556 0C8.62267 0-8.88178e-16 8.63097-8.88178e-16 19.0714C-8.88178e-16 29.5118 8.63852 38.1428 19.0714 38.1428ZM19.0714 35.4215C10.0233 35.4215 2.74466 28.1354 2.74466 19.0714C2.74466 10.0075 10.0075 2.72129 19.0556 2.72129C28.1195 2.72129 35.4215 10.0075 35.4215 19.0714C35.4215 28.1354 28.1354 35.4215 19.0714 35.4215Z" fill="#000000" fill-opacity="0.85"/>
 </g>
</svg>
