<?xml version="1.0" encoding="UTF-8"?>
<!--Generator: Apple Native CoreSVG 232.5-->
<!DOCTYPE svg
PUBLIC "-//W3C//DTD SVG 1.1//EN"
       "http://www.w3.org/Graphics/SVG/1.1/DTD/svg11.dtd">
<svg version="1.1" xmlns="http://www.w3.org/2000/svg" xmlns:xlink="http://www.w3.org/1999/xlink" width="32.2037" height="42.0889">
 <g>
  <rect height="42.0889" opacity="0" width="32.2037" x="0" y="0"/>
  <path d="M0.000812023 4.50748L4.30087 4.50748L4.30087 1.98573C4.30087 0.695809 3.65256 0 2.50662 0L1.75361 0C0.625048 0 0.000812023 0.744807 0.000812023 1.98573ZM0.000812023 37.3151L1.58472 41.4669C1.75206 41.8748 2.38303 41.8982 2.56622 41.4828L4.30087 37.3392L4.30087 6.55653L0.000812023 6.55653ZM18.5547 41.8424L27.6832 41.8424C30.3988 41.8424 32.2037 40.0292 32.2037 37.3219L32.2037 4.75791C32.2037 2.02643 30.3988 0.205749 27.6832 0.205749L18.5547 0.205749C15.8632 0.205749 14.0584 2.01061 14.0584 4.74209L14.0584 37.306C14.0584 40.0292 15.8632 41.8424 18.5547 41.8424ZM18.9671 39.4693C17.4071 39.4693 16.4473 38.4929 16.4473 36.9729L16.4473 5.0911C16.4473 3.57103 17.4071 2.59464 18.9671 2.59464L27.2792 2.59464C28.8309 2.59464 29.8148 3.57103 29.8148 5.0911L29.8148 36.957C29.8148 38.4771 28.8309 39.4693 27.2792 39.4693ZM30.6772 6.45108L30.6772 5.1303L21.7907 5.1303C21.4137 5.1303 21.1416 5.40243 21.1416 5.79446C21.1416 6.14727 21.3979 6.45108 21.7749 6.45108ZM30.6772 9.48418L30.6772 8.19504L24.7981 8.19504C24.4054 8.19504 24.1573 8.45138 24.1573 8.85169C24.1573 9.22035 24.3895 9.48418 24.7823 9.48418ZM30.6772 12.549L30.6772 11.244L24.7981 11.244C24.4054 11.244 24.1573 11.5244 24.1573 11.9089C24.1573 12.2776 24.3895 12.549 24.7823 12.549ZM30.6772 15.5904L30.6772 14.2771L24.7981 14.2771C24.4054 14.2771 24.1573 14.5417 24.1573 14.9262C24.1573 15.3107 24.3895 15.5904 24.7823 15.5904ZM30.6772 18.6393L30.6772 17.3102L24.7981 17.3102C24.4054 17.3102 24.1573 17.5907 24.1573 18.0068C24.1573 18.3438 24.3895 18.6393 24.7823 18.6393ZM30.6772 21.6649L30.6772 20.3832L21.7907 20.3832C21.4137 20.3832 21.1416 20.6321 21.1416 21.0324C21.1416 21.4168 21.3979 21.6649 21.7749 21.6649ZM30.6772 24.7538L30.6772 23.4247L24.7981 23.4247C24.4054 23.4247 24.1573 23.6968 24.1573 24.0655C24.1573 24.45 24.3895 24.7538 24.7823 24.7538ZM30.6772 27.7869L30.6772 26.4736L24.7981 26.4736C24.4054 26.4736 24.1573 26.7299 24.1573 27.1302C24.1573 27.4989 24.3895 27.7869 24.7823 27.7869ZM30.6772 30.82L30.6772 29.515L24.7981 29.515C24.4054 29.515 24.1573 29.7789 24.1573 30.1633C24.1573 30.5162 24.3895 30.82 24.7823 30.82ZM30.6772 33.8531L30.6772 32.5639L24.7981 32.5639C24.4054 32.5639 24.1573 32.8044 24.1573 33.1964C24.1573 33.5892 24.3895 33.8531 24.7823 33.8531ZM30.6772 36.9096L30.6772 35.5887L21.7907 35.5887C21.4137 35.5887 21.1416 35.8692 21.1416 36.2454C21.1416 36.614 21.3979 36.9096 21.7749 36.9096Z" fill="#000000" fill-opacity="0.85"/>
 </g>
</svg>
