<?xml version="1.0" encoding="UTF-8"?>
<!--Generator: Apple Native CoreSVG 326-->
<!DOCTYPE svg
PUBLIC "-//W3C//DTD SVG 1.1//EN"
       "http://www.w3.org/Graphics/SVG/1.1/DTD/svg11.dtd">
<svg version="1.1" xmlns="http://www.w3.org/2000/svg" xmlns:xlink="http://www.w3.org/1999/xlink" viewBox="0 0 40.4004 40.0049">
 <g>
  <rect height="40.0049" opacity="0" width="40.4004" x="0" y="0"/>
  <path d="M18.1055 40.0049L21.9287 40.0049C23.3057 40.0049 24.3457 39.1846 24.6533 37.8369L25.4883 34.2334L26.2793 33.9551L29.4141 35.8887C30.5859 36.6211 31.9043 36.4746 32.8857 35.4932L35.5225 32.8418C36.5186 31.8457 36.6797 30.542 35.9473 29.3848L33.9844 26.25L34.2627 25.4883L37.8662 24.6533C39.1992 24.3457 40.0342 23.291 40.0342 21.9141L40.0342 18.1641C40.0342 16.8018 39.2139 15.7617 37.8662 15.4395L34.292 14.5752L33.999 13.7842L35.9619 10.6641C36.6943 9.49219 36.5479 8.18848 35.5371 7.19238L32.9004 4.54102C31.9336 3.57422 30.6152 3.39844 29.4434 4.13086L26.3086 6.06445L25.4883 5.75684L24.6533 2.16797C24.3457 0.805664 23.3057 0 21.9287 0L18.1055 0C16.7285 0 15.6885 0.805664 15.3809 2.16797L14.5459 5.75684L13.7109 6.06445L10.5908 4.13086C9.41895 3.39844 8.10059 3.57422 7.13379 4.54102L4.48242 7.19238C3.48633 8.18848 3.33984 9.49219 4.07227 10.6641L6.03516 13.7842L5.72754 14.5752L2.16797 15.4395C0.820312 15.7617 0 16.8018 0 18.1641L0 21.9141C0 23.291 0.834961 24.3457 2.16797 24.6533L5.75684 25.4883L6.0498 26.25L4.08691 29.3848C3.35449 30.542 3.51562 31.8457 4.49707 32.8418L7.14844 35.4932C8.12988 36.4746 9.44824 36.6211 10.6201 35.8887L13.7402 33.9551L14.5459 34.2334L15.3809 37.8369C15.6885 39.1846 16.7285 40.0049 18.1055 40.0049ZM18.3691 37.4854C17.9736 37.4854 17.7539 37.2949 17.6807 36.9287L16.582 32.2998C15.498 32.0068 14.4727 31.5967 13.6816 31.1279L9.63867 33.6475C9.33105 33.8379 9.00879 33.8232 8.73047 33.5156L6.45996 31.2451C6.16699 30.9668 6.15234 30.6885 6.35742 30.3516L8.8623 26.3086C8.4668 25.5469 8.0127 24.5215 7.71973 23.4375L3.07617 22.3535C2.70996 22.2803 2.51953 22.0605 2.51953 21.6504L2.51953 18.4131C2.51953 18.0029 2.69531 17.7979 3.07617 17.71L7.70508 16.6113C7.99805 15.4834 8.51074 14.4287 8.83301 13.7256L6.34277 9.69727C6.12305 9.3457 6.1377 9.05273 6.43066 8.77441L8.71582 6.51855C9.00879 6.24023 9.28711 6.19629 9.63867 6.40137L13.6523 8.87695C14.4434 8.45215 15.5273 7.99805 16.5967 7.70508L17.6807 3.07617C17.7539 2.69531 17.9736 2.51953 18.3691 2.51953L21.665 2.51953C22.0752 2.51953 22.2803 2.68066 22.3535 3.07617L23.4521 7.73438C24.5654 8.0127 25.5469 8.4668 26.3525 8.8916L30.3809 6.40137C30.7471 6.19629 31.0107 6.24023 31.3184 6.51855L33.6035 8.77441C33.8818 9.05273 33.8965 9.3457 33.6768 9.69727L31.1865 13.7256C31.5381 14.4287 32.0361 15.4688 32.3291 16.6113L36.958 17.71C37.3389 17.7979 37.5146 18.0029 37.5146 18.4131L37.5146 21.6504C37.5146 22.0605 37.3242 22.2803 36.958 22.3535L32.3145 23.4375C32.0215 24.5215 31.582 25.5469 31.1572 26.3086L33.6621 30.3516C33.8672 30.6885 33.8525 30.9668 33.5742 31.2451L31.3037 33.5156C31.0107 33.8232 30.7031 33.8379 30.3809 33.6475L26.3379 31.1279C25.5615 31.5967 24.5508 32.0068 23.4521 32.2998L22.3535 36.9287C22.2803 37.3096 22.0752 37.4854 21.665 37.4854ZM20.0244 27.2021C24.0088 27.2021 27.2314 23.9795 27.2314 19.9951C27.2314 15.9961 24.0088 12.7881 20.0244 12.7881C16.0254 12.7881 12.8027 15.9961 12.8027 19.9951C12.8027 23.9795 16.0254 27.2021 20.0244 27.2021ZM20.0244 24.6973C17.417 24.6973 15.3223 22.5879 15.3223 19.9951C15.3223 17.3877 17.417 15.293 20.0244 15.293C22.6172 15.293 24.7266 17.3877 24.7266 19.9951C24.7266 22.5879 22.6172 24.6973 20.0244 24.6973Z" fill="black" fill-opacity="0.85"/>
 </g>
</svg>
