<?xml version="1.0" encoding="UTF-8"?>
<!--Generator: Apple Native CoreSVG 326-->
<!DOCTYPE svg
PUBLIC "-//W3C//DTD SVG 1.1//EN"
       "http://www.w3.org/Graphics/SVG/1.1/DTD/svg11.dtd">
<svg version="1.1" xmlns="http://www.w3.org/2000/svg" xmlns:xlink="http://www.w3.org/1999/xlink" viewBox="0 0 41.25 40.3377">
 <g>
  <rect height="40.3377" opacity="0" width="41.25" x="0" y="0"/>
  <path d="M20.4346 37.9301C20.918 37.9301 21.4014 37.9154 21.8848 37.8715L22.8662 39.7172C23.1152 40.1859 23.4814 40.3617 23.9941 40.2885C24.5068 40.2006 24.7705 39.893 24.8438 39.3803L25.1514 37.3148C26.0889 37.0512 26.9824 36.7143 27.8613 36.3188L29.3994 37.7104C29.7803 38.0766 30.2197 38.0912 30.6592 37.8568C31.1133 37.6078 31.2744 37.2123 31.1572 36.6996L30.7178 34.6488C31.5088 34.1068 32.2412 33.477 32.9297 32.8178L34.8633 33.5941C35.3613 33.7846 35.7568 33.6674 36.1084 33.2865C36.4453 32.9057 36.46 32.4809 36.1816 32.0268L35.0684 30.2543C35.6104 29.4633 36.0938 28.643 36.5039 27.7787L38.584 27.852C39.1113 27.8666 39.4629 27.6322 39.6387 27.1342C39.8291 26.6654 39.7119 26.2553 39.3018 25.933L37.6318 24.6586C37.8809 23.7357 38.0566 22.7982 38.1445 21.8168L40.1221 21.1723C40.6348 21.0111 40.8838 20.6742 40.8838 20.1615C40.8838 19.6488 40.6348 19.2973 40.1221 19.1361L38.1445 18.5063C38.0566 17.5248 37.8809 16.5727 37.6318 15.6498L39.2871 14.3754C39.7119 14.0531 39.7998 13.6576 39.6533 13.1596C39.4629 12.6615 39.0967 12.4564 38.584 12.4711L36.5039 12.5297C36.0938 11.6654 35.6104 10.8305 35.0684 10.0395L36.167 8.28165C36.46 7.84219 36.4014 7.41739 36.1084 7.02188C35.7568 6.61172 35.332 6.53848 34.8779 6.71426L32.9297 7.50528C32.2412 6.80215 31.4941 6.20157 30.7178 5.64493L31.1572 3.62344C31.2598 3.0961 31.0986 2.71524 30.6738 2.45157C30.2051 2.20254 29.7803 2.26114 29.4141 2.59805L27.8467 3.98965C26.9824 3.5795 26.0742 3.27188 25.1367 3.00821L24.8438 0.942778C24.7705 0.415434 24.4775 0.137114 23.9941 0.0199263C23.4814-0.0679644 23.1006 0.137114 22.8662 0.591215L21.8701 2.43692C21.4014 2.40762 20.918 2.37832 20.4346 2.37832C19.9512 2.37832 19.4824 2.40762 18.999 2.43692L18.0176 0.591215C17.7686 0.122465 17.3877-0.0386675 16.8896 0.0199263C16.377 0.107817 16.0986 0.430083 16.0254 0.928129L15.7178 3.00821C14.7803 3.27188 13.8867 3.60879 13.0078 4.0043L11.4844 2.59805C11.0889 2.24649 10.6641 2.21719 10.21 2.45157C9.77051 2.71524 9.60938 3.11075 9.71191 3.60879L10.1514 5.67422C9.36035 6.21622 8.62793 6.83145 7.9541 7.50528L6.02051 6.71426C5.53711 6.52383 5.1123 6.64102 4.77539 7.02188C4.43848 7.41739 4.42383 7.84219 4.70215 8.28165L5.81543 10.0541C5.25879 10.8451 4.79004 11.6801 4.36523 12.5443L2.2998 12.4564C1.75781 12.4418 1.40625 12.6908 1.23047 13.1742C1.05469 13.6576 1.18652 14.0531 1.59668 14.3754L3.25195 15.6645C2.98828 16.5873 2.82715 17.5248 2.73926 18.5063L0.74707 19.1361C0.249023 19.2973 0 19.6488 0 20.1615C0 20.6742 0.249023 21.0111 0.74707 21.1723L2.73926 21.8168C2.82715 22.7982 2.98828 23.7357 3.25195 24.6586L1.59668 25.9477C1.18652 26.2699 1.08398 26.6654 1.23047 27.1488C1.4209 27.6469 1.75781 27.852 2.28516 27.8373L4.36523 27.7787C4.79004 28.6576 5.25879 29.4779 5.81543 30.2689L4.70215 32.0268C4.42383 32.4809 4.46777 32.9057 4.77539 33.3012C5.12695 33.6967 5.53711 33.7846 6.00586 33.5941L7.9541 32.8031C8.62793 33.4916 9.375 34.1068 10.1514 34.6635L9.72656 36.6996C9.62402 37.227 9.78516 37.6078 10.21 37.8715C10.6787 38.1205 11.0889 38.0766 11.4697 37.725L13.0371 36.3188C13.9014 36.7289 14.7949 37.0512 15.7324 37.3148L16.0254 39.3803C16.0986 39.893 16.3916 40.1859 16.8896 40.2885C17.4023 40.3764 17.7686 40.1859 18.0176 39.7318L18.999 37.8715C19.4824 37.9154 19.9512 37.9301 20.4346 37.9301ZM20.4346 35.2641C12.0996 35.2641 5.33203 28.4965 5.33203 20.1615C5.33203 11.8119 12.0996 5.04434 20.4346 5.04434C28.7842 5.04434 35.5518 11.8119 35.5518 20.1615C35.5518 28.4965 28.7842 35.2641 20.4346 35.2641ZM17.3877 17.2904L19.3359 16.0893L12.9639 5.14688L10.9424 6.27481ZM24.4775 21.2455L37.1631 21.2455L37.1631 18.975L24.4775 18.975ZM19.4092 24.2631L17.4902 23.0326L10.8105 33.9897L12.8027 35.1615ZM20.4639 24.849C23.0566 24.849 25.1514 22.7543 25.1514 20.1615C25.1514 17.5688 23.0566 15.4594 20.4639 15.4594C17.8711 15.4594 15.7617 17.5688 15.7617 20.1615C15.7617 22.7543 17.8711 24.849 20.4639 24.849ZM20.4639 22.4174C19.2041 22.4174 18.208 21.4066 18.208 20.1615C18.208 18.9164 19.2041 17.9057 20.4639 17.9057C21.709 17.9057 22.7197 18.9164 22.7197 20.1615C22.7197 21.4066 21.709 22.4174 20.4639 22.4174Z" fill="black" fill-opacity="0.85"/>
 </g>
</svg>
