<?xml version="1.0" encoding="UTF-8"?>
<!--Generator: Apple Native CoreSVG 326-->
<!DOCTYPE svg
PUBLIC "-//W3C//DTD SVG 1.1//EN"
       "http://www.w3.org/Graphics/SVG/1.1/DTD/svg11.dtd">
<svg version="1.1" xmlns="http://www.w3.org/2000/svg" xmlns:xlink="http://www.w3.org/1999/xlink" viewBox="0 0 38.5254 38.1885">
 <g>
  <rect height="38.1885" opacity="0" width="38.5254" x="0" y="0"/>
  <path d="M19.0723 38.1592C29.6045 38.1592 38.1592 29.6191 38.1592 19.0869C38.1592 8.55469 29.6045 0 19.0723 0C8.54004 0 0 8.55469 0 19.0869C0 29.6191 8.54004 38.1592 19.0723 38.1592ZM19.0723 35.4346C10.0342 35.4346 2.72461 28.125 2.72461 19.0869C2.72461 10.0488 10.0342 2.73926 19.0723 2.73926C28.1104 2.73926 35.4199 10.0488 35.4199 19.0869C35.4199 28.125 28.1104 35.4346 19.0723 35.4346Z" fill="black" fill-opacity="0.85"/>
  <path d="M18.0469 30.1611L20.0684 30.1611C20.6396 30.1611 21.0352 29.8242 21.1523 29.2529L21.709 26.9531C22.0898 26.8066 22.4707 26.6748 22.793 26.5137L24.8145 27.7588C25.2979 28.0664 25.8105 28.0225 26.2061 27.627L27.5977 26.2354C28.0078 25.8398 28.0811 25.2832 27.7441 24.8145L26.5137 22.8076C26.6602 22.4561 26.8066 22.0898 26.9238 21.7236L29.2529 21.1963C29.8242 21.0645 30.1318 20.6689 30.1318 20.083L30.1318 18.1055C30.1318 17.5488 29.8242 17.1533 29.2529 17.0215L26.9385 16.4795C26.8066 16.0693 26.6455 15.7031 26.5283 15.3809L27.7734 13.3594C28.0811 12.876 28.0518 12.3486 27.627 11.9531L26.2061 10.5615C25.8105 10.1807 25.3125 10.0928 24.8291 10.4004L22.793 11.6602C22.4707 11.5137 22.1045 11.3525 21.709 11.2207L21.1523 8.90625C21.0352 8.33496 20.6396 7.99805 20.0684 7.99805L18.0469 7.99805C17.4902 7.99805 17.0947 8.33496 16.9629 8.90625L16.4062 11.2061C16.0254 11.3379 15.6592 11.4844 15.3076 11.6602L13.2861 10.4004C12.8027 10.0928 12.3047 10.1514 11.9092 10.5615L10.4736 11.9531C10.0635 12.3486 10.0488 12.876 10.3418 13.3594L11.5869 15.3809C11.4551 15.7031 11.3086 16.0693 11.1621 16.4795L8.8623 17.0215C8.29102 17.1533 7.9834 17.5488 7.9834 18.1055L7.9834 20.083C7.9834 20.6689 8.29102 21.0645 8.8623 21.1963L11.1768 21.7236C11.3086 22.0898 11.4404 22.4561 11.6016 22.8076L10.3711 24.8145C10.0488 25.2832 10.1074 25.8398 10.5029 26.2354L11.9092 27.627C12.3047 28.0225 12.8174 28.0664 13.3008 27.7588L15.3223 26.5137C15.6592 26.6748 16.0254 26.8066 16.4062 26.9531L16.9629 29.2529C17.0947 29.8242 17.4902 30.1611 18.0469 30.1611ZM19.0576 22.8369C16.9629 22.8369 15.2783 21.1523 15.2783 19.0576C15.2783 16.9629 16.9629 15.2637 19.0576 15.2637C21.1523 15.2637 22.8516 16.9629 22.8516 19.0576C22.8516 21.1523 21.1523 22.8369 19.0576 22.8369Z" fill="black" fill-opacity="0.85"/>
 </g>
</svg>
