<?xml version="1.0" encoding="UTF-8"?>
<!--Generator: Apple Native CoreSVG 232.5-->
<!DOCTYPE svg
PUBLIC "-//W3C//DTD SVG 1.1//EN"
       "http://www.w3.org/Graphics/SVG/1.1/DTD/svg11.dtd">
<svg version="1.1" xmlns="http://www.w3.org/2000/svg" xmlns:xlink="http://www.w3.org/1999/xlink" width="34.4297" height="34.4863">
 <g>
  <rect height="34.4863" opacity="0" width="34.4297" x="0" y="0"/>
  <path d="M5.70409 34.4863L28.7256 34.4863C32.5193 34.4863 34.4297 32.5592 34.4297 28.8297L34.4297 5.69732C34.4297 1.96774 32.5193 0.04072 28.7256 0.04072L5.70409 0.04072C1.92625 0.04072 0 1.95114 0 5.69732L0 28.8297C0 32.5758 1.92625 34.4863 5.70409 34.4863ZM5.75234 31.8758C3.70828 31.8758 2.59466 30.8096 2.59466 28.7023L2.59466 5.82472C2.59466 3.73317 3.70828 2.65121 5.75234 2.65121L28.6774 2.65121C30.6882 2.65121 31.8351 3.73317 31.8351 5.82472L31.8351 28.7023C31.8351 30.8096 30.6882 31.8758 28.6774 31.8758Z" fill="#000000"/>
  <path d="M6.53597 18.09L9.56565 20.7521C10.3588 21.4411 11.2524 20.928 11.2524 20.023L11.2524 18.3373L16.1184 18.3373L16.1184 23.2162L14.4152 23.2162C13.5232 23.2162 13.016 24.1236 13.6802 24.8841L16.3444 27.9237C16.8226 28.481 17.5952 28.5005 18.0798 27.9327L20.7378 24.903C21.4268 24.116 20.9137 23.2162 20.0088 23.2162L18.3247 23.2162L18.3247 18.3373L23.1807 18.3373L23.1807 20.023C23.1807 20.928 24.0722 21.4411 24.8675 20.7521L27.891 18.0962C28.4672 17.6053 28.4434 16.8326 27.8821 16.3587L24.8486 13.6966C24.0798 13.0303 23.1807 13.5396 23.1807 14.4294L23.1807 16.1289L18.3247 16.1289L18.3247 11.2454L20.0088 11.2454C20.9137 11.2454 21.4268 10.3457 20.7378 9.55866L18.0758 6.52283C17.5829 5.94881 16.8103 5.99299 16.3383 6.5441L13.6802 9.57754C13.016 10.3381 13.5232 11.2454 14.4152 11.2454L16.1184 11.2454L16.1184 16.1289L11.2524 16.1289L11.2524 14.4294C11.2524 13.5396 10.3513 13.0303 9.58455 13.6966L6.55725 16.3525C6.00212 16.8203 5.95367 17.5929 6.53597 18.09Z" fill="#000000"/>
 </g>
</svg>
