<?xml version="1.0" encoding="UTF-8"?>
<!--Generator: Apple Native CoreSVG 232.5-->
<!DOCTYPE svg
PUBLIC "-//W3C//DTD SVG 1.1//EN"
       "http://www.w3.org/Graphics/SVG/1.1/DTD/svg11.dtd">
<svg version="1.1" xmlns="http://www.w3.org/2000/svg" xmlns:xlink="http://www.w3.org/1999/xlink" width="35.1052" height="28.3779">
 <g>
  <rect height="28.3779" opacity="0" width="35.1052" x="0" y="0"/>
  <path d="M35.1052 14.1769C35.1052 13.7789 34.9303 13.4216 34.6122 13.1193L22.0305 0.511882C21.6543 0.143206 21.2962 0 20.914 0C20.1263 0 19.5217 0.588727 19.5217 1.37571C19.5217 1.7579 19.6408 2.13179 19.9114 2.38658L25.0413 7.58726L31.8849 13.9003L32.2196 13.0628L26.4493 12.7454L1.41761 12.7454C0.590675 12.7454 0.00192761 13.35 0.00192761 14.1769C0.00192761 15.0038 0.590675 15.6084 1.41761 15.6084L26.4493 15.6084L32.2196 15.291L31.8849 14.4693L25.0413 20.7665L19.9114 25.9672C19.6491 26.2137 19.5217 26.5959 19.5217 26.9781C19.5217 27.7651 20.1263 28.3538 20.914 28.3538C21.2962 28.3538 21.6377 28.2106 21.9558 27.9166L34.6122 15.2345C34.9303 14.9322 35.1052 14.5749 35.1052 14.1769Z" fill="#000000" fill-opacity="0.85"/>
 </g>
</svg>
