<?xml version="1.0" encoding="UTF-8"?>
<!--Generator: Apple Native CoreSVG 232.5-->
<!DOCTYPE svg
PUBLIC "-//W3C//DTD SVG 1.1//EN"
       "http://www.w3.org/Graphics/SVG/1.1/DTD/svg11.dtd">
<svg version="1.1" xmlns="http://www.w3.org/2000/svg" xmlns:xlink="http://www.w3.org/1999/xlink" width="27.7354" height="27.7552">
 <g>
  <rect height="27.7552" opacity="0" width="27.7354" x="0" y="0"/>
  <path d="M27.7354 20.8146L27.6947 1.58978C27.6947 0.691234 27.1059 0.0467307 26.1516 0.0467307L6.91849 0.0467307C6.03578 0.0467307 5.4312 0.738734 5.4312 1.50235C5.4312 2.26597 6.09908 2.9097 6.87099 2.9097L14.4769 2.9097L23.3753 2.66319L19.9729 5.7091L0.447462 25.2661C0.161034 25.5526 0.00196956 25.9182 0.00196956 26.2604C0.00196956 27.024 0.685668 27.7552 1.48926 27.7552C1.85486 27.7552 2.2046 27.6203 2.49936 27.3256L22.0406 7.77682L25.0932 4.37438L24.8241 12.5533L24.8241 20.8779C24.8241 21.634 25.4837 22.3418 26.2715 22.3418C27.0517 22.3418 27.7354 21.6815 27.7354 20.8146Z" fill="#000000" fill-opacity="0.85"/>
 </g>
</svg>
