<?xml version="1.0" encoding="UTF-8"?>
<!--Generator: Apple Native CoreSVG 232.5-->
<!DOCTYPE svg
PUBLIC "-//W3C//DTD SVG 1.1//EN"
       "http://www.w3.org/Graphics/SVG/1.1/DTD/svg11.dtd">
<svg version="1.1" xmlns="http://www.w3.org/2000/svg" xmlns:xlink="http://www.w3.org/1999/xlink" width="35.5185" height="38.168">
 <g>
  <rect height="38.168" opacity="0" width="35.5185" x="0" y="0"/>
  <path d="M35.5178 26.422C35.5178 19.3886 30.7296 14.5734 22.5121 14.5734L8.6401 14.5734L3.12916 14.7799L3.42311 15.4938L7.96775 11.4798L13.7462 5.7963C14.0085 5.5498 14.1359 5.22339 14.1359 4.80954C14.1359 3.9909 13.5789 3.4097 12.7278 3.4097C12.3614 3.4097 11.9725 3.56877 11.686 3.85522L0.477176 14.9314C0.159064 15.2254 0 15.591 0 15.989C0 16.3788 0.159064 16.7602 0.477176 17.0625L11.686 28.1387C11.9725 28.4011 12.3614 28.5759 12.7278 28.5759C13.5789 28.5759 14.1359 27.9872 14.1359 27.1686C14.1359 26.7547 14.0085 26.4358 13.7462 26.1893L7.96775 20.5142L3.42311 16.4919L3.12916 17.214L8.6401 17.4122L22.7246 17.4122C29.115 17.4122 32.6789 21.0433 32.6789 26.2795C32.6789 31.524 29.115 35.3208 22.7246 35.3208L17.8349 35.3208C16.9604 35.3208 16.4041 35.9571 16.4041 36.7365C16.4041 37.5318 16.9687 38.168 17.8432 38.168L22.7412 38.168C30.8246 38.168 35.5178 33.4711 35.5178 26.422Z" fill="#000000"/>
 </g>
</svg>
