<?xml version="1.0" encoding="UTF-8"?>
<!--Generator: Apple Native CoreSVG 232.5-->
<!DOCTYPE svg
PUBLIC "-//W3C//DTD SVG 1.1//EN"
       "http://www.w3.org/Graphics/SVG/1.1/DTD/svg11.dtd">
<svg version="1.1" xmlns="http://www.w3.org/2000/svg" xmlns:xlink="http://www.w3.org/1999/xlink" width="34.4309" height="34.4863">
 <g>
  <rect height="34.4863" opacity="0" width="34.4309" x="0" y="0"/>
  <path d="M5.70533 34.4863L28.7268 34.4863C32.5205 34.4863 34.4309 32.5592 34.4309 28.8296L34.4309 5.69731C34.4309 1.96774 32.5205 0.0407208 28.7268 0.0407208L5.70533 0.0407208C1.92749 0.0407208 0.00122969 1.95115 0.00122969 5.69731L0.00122969 28.8296C0.00122969 32.5758 1.92749 34.4863 5.70533 34.4863ZM5.75358 31.8758C3.7095 31.8758 2.59589 30.8096 2.59589 28.7023L2.59589 5.82472C2.59589 3.73318 3.7095 2.65121 5.75358 2.65121L28.6786 2.65121C30.6895 2.65121 31.8363 3.73318 31.8363 5.82472L31.8363 28.7023C31.8363 30.8096 30.6895 31.8758 28.6786 31.8758Z" fill="#000000" fill-opacity="0.85"/>
  <path d="M17.2972 26.144C21.179 26.144 23.6459 24.0308 23.6459 21.1063C23.6459 18.9123 21.9646 17.127 19.6817 16.9099L19.6817 16.7817C21.5801 16.4831 23.0427 14.7386 23.0427 12.7685C23.0427 10.1818 20.698 8.31811 17.4155 8.31811C14.4722 8.31811 12.1743 9.74079 11.7272 11.9166C11.6714 12.1729 11.6473 12.3651 11.6473 12.629C11.6473 13.2668 12.1094 13.7213 12.7705 13.7213C13.3691 13.7213 13.7204 13.4258 13.8945 12.8514C14.2699 11.3593 15.5623 10.4062 17.368 10.4062C19.3683 10.4062 20.6207 11.4249 20.6207 13.0633C20.6207 14.7092 19.2326 15.945 17.3461 15.945L16.0696 15.945C15.4635 15.945 15.0331 16.3513 15.0331 16.9574C15.0331 17.5477 15.4635 17.9698 16.0696 17.9698L17.4593 17.9698C19.6668 17.9698 21.2079 19.2297 21.2079 21.0113C21.2079 22.8442 19.6593 24.0559 17.3446 24.0559C15.2607 24.0559 13.9895 22.9996 13.5484 21.6107C13.3261 21.0122 12.9831 20.7408 12.4086 20.7408C11.7475 20.7408 11.2771 21.227 11.2771 21.8648C11.2771 22.1286 11.3013 22.2892 11.3653 22.5455C11.9285 24.6822 14.3207 26.144 17.2972 26.144Z" fill="#000000" fill-opacity="0.85"/>
 </g>
</svg>
