<?xml version="1.0" encoding="UTF-8"?>
<!--Generator: Apple Native CoreSVG 232.5-->
<!DOCTYPE svg
PUBLIC "-//W3C//DTD SVG 1.1//EN"
       "http://www.w3.org/Graphics/SVG/1.1/DTD/svg11.dtd">
<svg version="1.1" xmlns="http://www.w3.org/2000/svg" xmlns:xlink="http://www.w3.org/1999/xlink" width="54.3728" height="33.8225">
 <g>
  <rect height="33.8225" opacity="0" width="54.3728" x="0" y="0"/>
  <path d="M49.0909 2.58635C50.2899 2.58635 51.4729 2.74771 52.6151 3.0372C54.4484 3.48348 55.1711 0.999652 53.1871 0.474243C52.1181 0.1847 50.608 0 49.0909 0C38.665 0 30.062 9.53564 30.062 21.0307C30.062 28.6514 33.2638 33.7984 38.1274 33.7984C43.0142 33.7984 46.2244 28.6438 46.2244 21.0307C46.2244 9.52735 37.6455 0 27.1795 0C16.7294 0 8.15048 9.52735 8.15048 21.0307C8.15048 28.6438 11.3607 33.7984 16.2475 33.7984C21.111 33.7984 24.3129 28.6514 24.3129 21.0307C24.3129 9.53564 15.7098 0 5.28385 0C3.76696 0 2.25687 0.1847 1.18777 0.474243C-0.796322 0.999652-0.0734263 3.48348 1.74409 3.0372C2.90211 2.74771 4.08507 2.58635 5.28385 2.58635C14.2452 2.58635 21.7182 10.9438 21.7182 21.0307C21.7182 27.1542 19.488 31.212 16.2475 31.212C12.9995 31.212 10.7451 27.1301 10.7451 21.0307C10.7451 10.9438 18.2182 2.58635 27.1795 2.58635C36.1567 2.58635 43.6139 10.9438 43.6139 21.0307C43.6139 27.1301 41.3754 31.212 38.1274 31.212C34.8868 31.212 32.6566 27.1542 32.6566 21.0307C32.6566 10.9438 40.1297 2.58635 49.0909 2.58635Z" fill="#000000"/>
 </g>
</svg>
