<?xml version="1.0" encoding="UTF-8"?>
<!--Generator: Apple Native CoreSVG 232.5-->
<!DOCTYPE svg
PUBLIC "-//W3C//DTD SVG 1.1//EN"
       "http://www.w3.org/Graphics/SVG/1.1/DTD/svg11.dtd">
<svg version="1.1" xmlns="http://www.w3.org/2000/svg" xmlns:xlink="http://www.w3.org/1999/xlink" width="34.4297" height="34.4863">
 <g>
  <rect height="34.4863" opacity="0" width="34.4297" x="0" y="0"/>
  <path d="M5.70409 34.4863L28.7256 34.4863C32.5193 34.4863 34.4297 32.5592 34.4297 28.8297L34.4297 5.69732C34.4297 1.96774 32.5193 0.04072 28.7256 0.04072L5.70409 0.04072C1.92625 0.04072 0 1.95114 0 5.69732L0 28.8297C0 32.5758 1.92625 34.4863 5.70409 34.4863ZM5.75234 31.8758C3.70828 31.8758 2.59466 30.8096 2.59466 28.7023L2.59466 5.82472C2.59466 3.73317 3.70828 2.65121 5.75234 2.65121L28.6774 2.65121C30.6882 2.65121 31.8351 3.73317 31.8351 5.82472L31.8351 28.7023C31.8351 30.8096 30.6882 31.8758 28.6774 31.8758Z" fill="#000000"/>
  <path d="M22.4652 17.2106C22.4652 20.0962 20.0928 22.4333 17.2508 22.4333C14.3801 22.4333 12.0077 20.0962 12.0077 17.2106C12.0077 14.3481 14.3734 12.0111 17.2508 12.0111C20.0928 12.0111 22.4652 14.3481 22.4652 17.2106Z" fill="#000000"/>
 </g>
</svg>
