<?xml version="1.0" encoding="UTF-8"?>
<!--Generator: Apple Native CoreSVG 326-->
<!DOCTYPE svg
PUBLIC "-//W3C//DTD SVG 1.1//EN"
       "http://www.w3.org/Graphics/SVG/1.1/DTD/svg11.dtd">
<svg version="1.1" xmlns="http://www.w3.org/2000/svg" xmlns:xlink="http://www.w3.org/1999/xlink" viewBox="0 0 38.5254 38.1885">
 <g>
  <rect height="38.1885" opacity="0" width="38.5254" x="0" y="0"/>
  <path d="M19.0723 38.1592C29.6045 38.1592 38.1592 29.6191 38.1592 19.0869C38.1592 8.55469 29.6045 0 19.0723 0C8.54004 0 0 8.55469 0 19.0869C0 29.6191 8.54004 38.1592 19.0723 38.1592ZM19.0723 35.4346C10.0342 35.4346 2.72461 28.125 2.72461 19.0869C2.72461 10.0488 10.0342 2.73926 19.0723 2.73926C28.1104 2.73926 35.4199 10.0488 35.4199 19.0869C35.4199 28.125 28.1104 35.4346 19.0723 35.4346Z" fill="black"/>
  <path d="M15.7178 29.5752L23.4375 29.5752C24.1113 29.5752 24.6387 29.0771 24.6387 28.418C24.6387 27.7734 24.1113 27.2607 23.4375 27.2607L20.8594 27.2607L20.8594 17.0215C20.8594 16.1719 20.4199 15.5859 19.5996 15.5859L15.9961 15.5859C15.3223 15.5859 14.7949 16.084 14.7949 16.7285C14.7949 17.3877 15.3223 17.8857 15.9961 17.8857L18.2959 17.8857L18.2959 27.2607L15.7178 27.2607C15.0439 27.2607 14.5312 27.7734 14.5312 28.418C14.5312 29.0771 15.0439 29.5752 15.7178 29.5752ZM18.9404 12.2461C20.1855 12.2461 21.1523 11.25 21.1523 10.0342C21.1523 8.78906 20.1855 7.79297 18.9404 7.79297C17.71 7.79297 16.7285 8.78906 16.7285 10.0342C16.7285 11.25 17.71 12.2461 18.9404 12.2461Z" fill="black"/>
 </g>
</svg>
