<?xml version="1.0" encoding="UTF-8"?>
<!--Generator: Apple Native CoreSVG 232.5-->
<!DOCTYPE svg
PUBLIC "-//W3C//DTD SVG 1.1//EN"
       "http://www.w3.org/Graphics/SVG/1.1/DTD/svg11.dtd">
<svg version="1.1" xmlns="http://www.w3.org/2000/svg" xmlns:xlink="http://www.w3.org/1999/xlink" width="40.8348" height="43.022">
 <g>
  <rect height="43.022" opacity="0" width="40.8348" x="0" y="0"/>
  <path d="M38.5384 20.5367C38.5384 21.2687 37.9655 21.8499 37.2328 21.8499L25.4013 21.8499C25.243 21.2791 24.932 20.7228 24.4491 20.2265L23.5157 19.2552L37.2328 19.2552C37.9655 19.2552 38.5384 19.8206 38.5384 20.5367Z" fill="#000000"/>
  <path d="M33.4684 15.2683C33.4684 16.0086 32.9113 16.5815 32.1628 16.5815L20.9462 16.5815L18.4606 13.9951L32.1628 13.9951C32.9113 13.9951 33.4684 14.5363 33.4684 15.2683Z" fill="#000000"/>
  <path d="M28.4692 9.99236C28.4692 10.7401 27.8962 11.3055 27.1635 11.3055L15.8759 11.3055L13.3824 8.71086L27.1635 8.71086C27.8962 8.71086 28.4692 9.27623 28.4692 9.99236Z" fill="#000000"/>
  <path d="M23.3675 4.73226C23.3675 5.46423 22.8104 6.04543 22.0619 6.04543L10.8209 6.04543L8.32743 3.45076L22.0619 3.45076C22.8104 3.45076 23.3675 4.00783 23.3675 4.73226Z" fill="#000000"/>
  <path d="M20.2372 37.8517L13.5016 22.0961L12.6535 23.4681L21.8045 23.94C22.9217 24.0116 23.4736 22.7979 22.6752 21.9589L4.5534 3.11822C3.81836 2.3508 2.63401 2.79937 2.62648 3.86984L2.47584 29.7956C2.46831 30.9452 3.78684 31.4488 4.53691 30.5706L10.5223 24.0613L8.89771 23.7568L15.4177 39.8329C15.6575 40.4164 16.2658 40.6878 16.8177 40.4481L19.7328 39.2668C20.3005 39.0429 20.477 38.4111 20.2372 37.8517Z" fill="#000000"/>
 </g>
</svg>
