<?xml version="1.0" encoding="UTF-8" standalone="no"?>
<!DOCTYPE svg PUBLIC "-//W3C//DTD SVG 1.1//EN" "http://www.w3.org/Graphics/SVG/1.1/DTD/svg11.dtd">
<svg width="100%" height="100%" viewBox="0 0 378 284" version="1.1" xmlns="http://www.w3.org/2000/svg" xmlns:xlink="http://www.w3.org/1999/xlink" xml:space="preserve" xmlns:serif="http://www.serif.com/" style="fill-rule:evenodd;clip-rule:evenodd;stroke-linejoin:round;stroke-miterlimit:2;">
    <g transform="matrix(0.728281,1.63575,-1.84586,0.821828,348.03,-229.682)">
        <rect x="124.133" y="27.224" width="17.81" height="227.144" style="fill:white;"/>
    </g>
    <g transform="matrix(0.391876,0.880167,-1.77914,0.792124,383.617,-125.23)">
        <rect x="124.133" y="27.224" width="17.81" height="227.144" style="fill:rgb(38,88,115);"/>
    </g>
    <g transform="matrix(-0.880167,0.391876,-0.792124,-1.77914,361.893,323.803)">
        <rect x="124.133" y="27.224" width="17.81" height="227.144" style="fill:rgb(38,88,115);"/>
    </g>
    <g transform="matrix(10.8826,-1.40127e-31,5.54535e-32,3.07794,-252.862,-42.0112)">
        <rect x="25.495" y="17.486" width="1.909" height="23.142" style="fill:white;"/>
    </g>
    <g transform="matrix(6.66366e-16,-10.8826,3.07794,1.8847e-16,-53.8222,334.716)">
        <rect x="25.495" y="17.486" width="1.909" height="23.142" style="fill:white;"/>
    </g>
    <g transform="matrix(4.66397,-7.07605e-32,8.358e-33,2.56495,-87.8868,-27.2417)">
        <rect x="25.495" y="17.486" width="1.909" height="23.142"/>
    </g>
    <g transform="matrix(2.85586e-16,-4.66397,2.56495,1.57058e-16,-38.9097,170.369)">
        <rect x="25.495" y="17.486" width="1.909" height="23.142"/>
    </g>
    <g transform="matrix(3.33455,0,0,3.31427,-88.5295,-152.35)">
        <circle cx="99.68" cy="69.708" r="8.921" style="fill:rgb(201,94,133);"/>
    </g>
    <g id="default.svg" transform="matrix(6.72942,0,0,6.72942,290.893,143.369)">
        <g transform="matrix(1,0,0,1,-16,-16)">
            <g transform="matrix(1,0,0,1,10,7)">
                <path d="M6.148,18.473L8.011,17.47L9.626,16.631L7.058,11.815L11.39,11.815L0.011,0.407L0.011,16.422L3.327,13.201L6.148,18.473Z" style="fill:white;"/>
                <path d="M6.431,17L8.196,16.059L5.421,10.857L9.025,10.857L1,2.814L1,14.002L3.53,11.56L6.431,17Z"/>
            </g>
        </g>
    </g>
</svg>
