<?xml version="1.0" encoding="UTF-8"?>
<!--Generator: Apple Native CoreSVG 232.5-->
<!DOCTYPE svg
PUBLIC "-//W3C//DTD SVG 1.1//EN"
       "http://www.w3.org/Graphics/SVG/1.1/DTD/svg11.dtd">
<svg version="1.1" xmlns="http://www.w3.org/2000/svg" xmlns:xlink="http://www.w3.org/1999/xlink" width="35.5185" height="38.168">
 <g>
  <rect height="38.168" opacity="0" width="35.5185" x="0" y="0"/>
  <path d="M0 26.422C0 33.4711 4.6932 38.168 12.7766 38.168L17.6746 38.168C18.549 38.168 19.1295 37.5318 19.1295 36.7365C19.1295 35.9571 18.5574 35.3208 17.6829 35.3208L12.7932 35.3208C6.40288 35.3208 2.83887 31.524 2.83887 26.2795C2.83887 21.0433 6.40288 17.4122 12.7932 17.4122L26.8935 17.4122L32.3886 17.214L32.1105 16.4919L27.5501 20.5142L21.7716 26.1893C21.5251 26.4358 21.3819 26.7547 21.3819 27.1686C21.3819 27.9872 21.9548 28.5759 22.8058 28.5759C23.1563 28.5759 23.5611 28.4011 23.8318 28.1387L35.0564 17.0625C35.3746 16.7602 35.5178 16.3788 35.5178 15.989C35.5178 15.591 35.3746 15.2254 35.0564 14.9314L23.8318 3.85522C23.5611 3.56877 23.1563 3.4097 22.8058 3.4097C21.9548 3.4097 21.3819 3.9909 21.3819 4.80954C21.3819 5.22339 21.5251 5.5498 21.7716 5.7963L27.5501 11.4798L32.1105 15.4938L32.3886 14.7799L26.8935 14.5734L13.0216 14.5734C4.804 14.5734 0 19.3886 0 26.422Z" fill="#000000"/>
 </g>
</svg>
