<?xml version="1.0" encoding="UTF-8"?>
<!--Generator: Apple Native CoreSVG 232.5-->
<!DOCTYPE svg
PUBLIC "-//W3C//DTD SVG 1.1//EN"
       "http://www.w3.org/Graphics/SVG/1.1/DTD/svg11.dtd">
<svg version="1.1" xmlns="http://www.w3.org/2000/svg" xmlns:xlink="http://www.w3.org/1999/xlink" width="34.4309" height="34.4863">
 <g>
  <rect height="34.4863" opacity="0" width="34.4309" x="0" y="0"/>
  <path d="M5.70533 34.4863L28.7268 34.4863C32.5205 34.4863 34.4309 32.5592 34.4309 28.8296L34.4309 5.69731C34.4309 1.96774 32.5205 0.0407208 28.7268 0.0407208L5.70533 0.0407208C1.92749 0.0407208 0.00122969 1.95115 0.00122969 5.69731L0.00122969 28.8296C0.00122969 32.5758 1.92749 34.4863 5.70533 34.4863ZM5.75358 31.8758C3.7095 31.8758 2.59589 30.8096 2.59589 28.7023L2.59589 5.82472C2.59589 3.73318 3.7095 2.65121 5.75358 2.65121L28.6786 2.65121C30.6895 2.65121 31.8363 3.73318 31.8363 5.82472L31.8363 28.7023C31.8363 30.8096 30.6895 31.8758 28.6786 31.8758Z" fill="#000000" fill-opacity="0.85"/>
  <path d="M12.956 25.7445L22.6524 25.7445C23.2743 25.7445 23.7281 25.3216 23.7281 24.6688C23.7281 23.9993 23.2743 23.6006 22.6524 23.6006L15.3675 23.6006L15.3675 23.4724L20.1123 18.3536C21.8614 16.4664 22.9327 15.0129 22.9327 13.0256C22.9327 10.1976 20.7101 8.31811 17.3153 8.31811C14.6464 8.31811 12.316 9.93378 11.7732 12.0908C11.7016 12.3389 11.6774 12.5628 11.6774 12.7949C11.6774 13.441 12.1079 13.8639 12.7456 13.8639C13.3525 13.8639 13.648 13.4892 13.9171 13.0015C14.3468 11.6797 15.4899 10.4145 17.4261 10.4145C19.3397 10.4145 20.598 11.5199 20.598 13.1914C20.598 14.5666 19.5683 15.7329 18.3815 17.0087L12.2142 23.6707C11.927 23.982 11.7838 24.3084 11.7838 24.6514C11.7838 25.3216 12.2225 25.7445 12.956 25.7445Z" fill="#000000" fill-opacity="0.85"/>
 </g>
</svg>
