<?xml version="1.0" encoding="UTF-8"?>
<!--Generator: Apple Native CoreSVG 232.5-->
<!DOCTYPE svg
PUBLIC "-//W3C//DTD SVG 1.1//EN"
       "http://www.w3.org/Graphics/SVG/1.1/DTD/svg11.dtd">
<svg version="1.1" xmlns="http://www.w3.org/2000/svg" xmlns:xlink="http://www.w3.org/1999/xlink" width="34.4309" height="34.4697">
 <g>
  <rect height="34.4697" opacity="0" width="34.4309" x="0" y="0"/>
  <path d="M34.4309 1.37429L34.4309 33.0712C34.4309 33.8945 33.8957 34.4455 33.0725 34.4455L1.35969 34.4455C0.536472 34.4455 0.00122969 33.8945 0.00122969 33.0712L0.00122969 1.37429C0.00122969 0.551087 0.536472-3.55271e-15 1.35969-3.55271e-15L33.0725-3.55271e-15C33.8957-3.55271e-15 34.4309 0.551087 34.4309 1.37429ZM3.10777 31.8351L15.9267 31.8351L15.9267 25.3847C16.355 25.4644 16.7975 25.5008 17.2481 25.5008C17.6816 25.5008 18.1079 25.4665 18.5213 25.3906L18.5213 31.8351L31.3402 31.8351C31.6915 31.8351 31.8363 31.6903 31.8363 31.339L31.8363 18.5525L25.3773 18.5525C25.4573 18.1243 25.4937 17.6819 25.4937 17.2311C25.4937 16.7973 25.4592 16.371 25.3828 15.9579L31.8363 15.9579L31.8363 3.10652C31.8363 2.75523 31.6915 2.61051 31.3402 2.61051L18.5213 2.61051L18.5213 9.11971C18.1079 9.04381 17.6816 9.00958 17.2481 9.00958C16.7975 9.00958 16.355 9.04593 15.9267 9.12559L15.9267 2.61051L3.10777 2.61051C2.74063 2.61051 2.59589 2.75523 2.59589 3.10652L2.59589 15.9579L9.08891 15.9579C9.01274 16.371 8.97839 16.7973 8.97839 17.2311C8.97839 17.6819 9.01471 18.1243 9.09439 18.5525L2.59589 18.5525L2.59589 31.339C2.59589 31.6903 2.74063 31.8351 3.10777 31.8351Z" fill="#000000"/>
  <path d="M17.2481 23.1593C20.4818 23.1593 23.1522 20.513 23.1522 17.2311C23.1522 13.9974 20.4818 11.3511 17.2481 11.3511C13.9745 11.3511 11.3041 13.9974 11.3041 17.2311C11.3041 20.513 13.9745 23.1593 17.2481 23.1593Z" fill="#000000"/>
 </g>
</svg>
