<?xml version="1.0" encoding="UTF-8"?>
<!--Generator: Apple Native CoreSVG 326-->
<!DOCTYPE svg
PUBLIC "-//W3C//DTD SVG 1.1//EN"
       "http://www.w3.org/Graphics/SVG/1.1/DTD/svg11.dtd">
<svg version="1.1" xmlns="http://www.w3.org/2000/svg" xmlns:xlink="http://www.w3.org/1999/xlink" viewBox="0 0 38.5254 38.1885">
 <g>
  <rect height="38.1885" opacity="0" width="38.5254" x="0" y="0"/>
  <path d="M19.0723 38.1592C29.6045 38.1592 38.1592 29.6191 38.1592 19.0869C38.1592 8.55469 29.6045 0 19.0723 0C8.54004 0 0 8.55469 0 19.0869C0 29.6191 8.54004 38.1592 19.0723 38.1592ZM19.0723 35.4346C10.0342 35.4346 2.72461 28.125 2.72461 19.0869C2.72461 10.0488 10.0342 2.73926 19.0723 2.73926C28.1104 2.73926 35.4199 10.0488 35.4199 19.0869C35.4199 28.125 28.1104 35.4346 19.0723 35.4346Z" fill="black" fill-opacity="0.85"/>
  <path d="M14.0186 25.9277L24.0967 25.9277C25.2246 25.9277 25.9131 25.2686 25.9131 24.1553L25.9131 14.0039C25.9131 12.9053 25.2246 12.2314 24.0967 12.2314L14.0186 12.2314C12.8906 12.2314 12.2168 12.9053 12.2168 14.0039L12.2168 24.1553C12.2168 25.2686 12.8906 25.9277 14.0186 25.9277Z" fill="black" fill-opacity="0.85"/>
 </g>
</svg>
